<svg xmlns="http://www.w3.org/2000/svg" width="1080" height="1920" viewBox="0 0 1080 1920"><rect width="1080" height="1920" fill="#17233E"/><circle cx="1020" cy="140" r="300" fill="none" stroke="#FFFFFF" stroke-opacity="0.05" stroke-width="46"/><circle cx="1020" cy="140" r="200" fill="none" stroke="#FFFFFF" stroke-opacity="0.04" stroke-width="30"/>
    <circle cx="540" cy="360" r="330" fill="#3B82F6" opacity="0.16"/>
    <circle cx="540" cy="360" r="257.40000000000003" fill="#3B82F6" opacity="0.18"/>
    <circle cx="540" cy="360" r="184.8" fill="#3B82F6" opacity="0.20"/><g transform="translate(410,230) scale(5.416666666666667)">
    <path d="M24 3l17 6.4v13c0 11.6-7.4 19-17 23.2C14.4 41.4 7 34 7 22.4v-13z" fill="#FFFFFF"/>
    <path d="M24 7.6l12.8 4.8v10c0 8.8-5.6 14.5-12.8 17.8-7.2-3.3-12.8-9-12.8-17.8v-10z" fill="#17233E"/>
    <path d="M21.4 29.4l-5.4-5.4 2.7-2.7 2.7 2.7 9.6-9.6 2.7 2.7z" fill="#FFFFFF"/>
  </g><text x="540" y="580" font-family="'Helvetica Neue', 'Segoe UI', Roboto, Arial, sans-serif" font-size="92" font-weight="800" fill="#FFFFFF" text-anchor="middle">Who Called</text><text x="540" y="646" font-family="'Helvetica Neue', 'Segoe UI', Roboto, Arial, sans-serif" font-size="30" font-weight="700" fill="#F59E0B" text-anchor="middle" letter-spacing="3">GRATUIT · ANONYME · OPEN SOURCE</text><rect x="110" y="776" width="860" height="130" rx="26" fill="#FFFFFF" fill-opacity="0.06" stroke="#FFFFFF" stroke-opacity="0.14"/><circle cx="188" cy="841" r="38" fill="#2563EB" fill-opacity="0.28"/><g transform="translate(166,819) scale(1.8333333333333333)" stroke="#3B82F6" fill="#3B82F6"><path d="M17 6.6A6.4 6.4 0 0 0 6.8 12 6.4 6.4 0 0 0 17 17.4M4.6 10.4h8M4.6 13.6h8" fill="none" stroke-width="2.2" stroke-linecap="round"/></g><text x="258" y="834" font-family="'Helvetica Neue', 'Segoe UI', Roboto, Arial, sans-serif" font-size="34" font-weight="700" fill="#FFFFFF" text-anchor="start">Gratuit, sans pub</text><text x="258" y="874" font-family="'Helvetica Neue', 'Segoe UI', Roboto, Arial, sans-serif" font-size="26" font-weight="400" fill="#FFFFFF" text-anchor="start" fill-opacity="0.72">Aucun abonnement, aucun tracking tiers.</text><rect x="110" y="930" width="860" height="130" rx="26" fill="#FFFFFF" fill-opacity="0.06" stroke="#FFFFFF" stroke-opacity="0.14"/><circle cx="188" cy="995" r="38" fill="#2563EB" fill-opacity="0.28"/><g transform="translate(166,973) scale(1.8333333333333333)" stroke="#3B82F6" fill="#3B82F6"><path d="M4 12s3-5.4 8-5.4S20 12 20 12s-3 5.4-8 5.4S4 12 4 12z" fill="none" stroke-width="2"/><path d="M5.5 5.5l13 13" stroke-width="2" stroke-linecap="round"/></g><text x="258" y="988" font-family="'Helvetica Neue', 'Segoe UI', Roboto, Arial, sans-serif" font-size="34" font-weight="700" fill="#FFFFFF" text-anchor="start">Anonyme</text><text x="258" y="1028" font-family="'Helvetica Neue', 'Segoe UI', Roboto, Arial, sans-serif" font-size="26" font-weight="400" fill="#FFFFFF" text-anchor="start" fill-opacity="0.72">Pas de compte, pas de données personnelles.</text><rect x="110" y="1084" width="860" height="130" rx="26" fill="#FFFFFF" fill-opacity="0.06" stroke="#FFFFFF" stroke-opacity="0.14"/><circle cx="188" cy="1149" r="38" fill="#2563EB" fill-opacity="0.28"/><g transform="translate(166,1127) scale(1.8333333333333333)" stroke="#3B82F6" fill="#3B82F6"><ellipse cx="12" cy="6" rx="7" ry="2.8" fill="none" stroke-width="2"/><path d="M5 6v12c0 1.6 3.1 2.8 7 2.8s7-1.2 7-2.8V6M5 12c0 1.6 3.1 2.8 7 2.8s7-1.2 7-2.8" fill="none" stroke-width="2"/></g><text x="258" y="1142" font-family="'Helvetica Neue', 'Segoe UI', Roboto, Arial, sans-serif" font-size="34" font-weight="700" fill="#FFFFFF" text-anchor="start">Liste officielle ARCEP</text><text x="258" y="1182" font-family="'Helvetica Neue', 'Segoe UI', Roboto, Arial, sans-serif" font-size="26" font-weight="400" fill="#FFFFFF" text-anchor="start" fill-opacity="0.72">+ les signalements de la communauté.</text><rect x="110" y="1238" width="860" height="130" rx="26" fill="#FFFFFF" fill-opacity="0.06" stroke="#FFFFFF" stroke-opacity="0.14"/><circle cx="188" cy="1303" r="38" fill="#2563EB" fill-opacity="0.28"/><g transform="translate(166,1281) scale(1.8333333333333333)" stroke="#3B82F6" fill="#3B82F6"><path d="M9 7l-5 5 5 5M15 7l5 5-5 5" fill="none" stroke-width="2.3" stroke-linecap="round" stroke-linejoin="round"/></g><text x="258" y="1296" font-family="'Helvetica Neue', 'Segoe UI', Roboto, Arial, sans-serif" font-size="34" font-weight="700" fill="#FFFFFF" text-anchor="start">Open source</text><text x="258" y="1336" font-family="'Helvetica Neue', 'Segoe UI', Roboto, Arial, sans-serif" font-size="26" font-weight="400" fill="#FFFFFF" text-anchor="start" fill-opacity="0.72">Le code est public et vérifiable.</text><rect x="110" y="1392" width="860" height="130" rx="26" fill="#FFFFFF" fill-opacity="0.06" stroke="#FFFFFF" stroke-opacity="0.14"/><circle cx="188" cy="1457" r="38" fill="#2563EB" fill-opacity="0.28"/><g transform="translate(166,1435) scale(1.8333333333333333)" stroke="#3B82F6" fill="#3B82F6"><rect x="2.6" y="7.5" width="18.8" height="10" rx="5" fill="none" stroke-width="2.1"/><path d="M8 10.4v4.2M5.9 12.5h4.2" stroke-width="1.9" stroke-linecap="round"/><circle cx="15.2" cy="11" r="1.25" stroke="none"/><circle cx="17.8" cy="14" r="1.25" stroke="none"/></g><text x="258" y="1450" font-family="'Helvetica Neue', 'Segoe UI', Roboto, Arial, sans-serif" font-size="34" font-weight="700" fill="#FFFFFF" text-anchor="start">2 mini-jeux inclus</text><text x="258" y="1490" font-family="'Helvetica Neue', 'Segoe UI', Roboto, Arial, sans-serif" font-size="26" font-weight="400" fill="#FFFFFF" text-anchor="start" fill-opacity="0.72">DEFENSE &amp; TRACE · un défi chaque jour.</text><text x="540" y="1850" font-family="'Helvetica Neue', 'Segoe UI', Roboto, Arial, sans-serif" font-size="30" font-weight="600" fill="#FFFFFF" text-anchor="middle" fill-opacity="0.55">who-called.com</text></svg>