<svg xmlns="http://www.w3.org/2000/svg" width="1080" height="2347" viewBox="0 0 1080 2347"><rect width="1080" height="2347" fill="#E4EEFD"/>
    <circle cx="540" cy="1318.624" r="669.6" fill="#3B82F6" opacity="0.16"/>
    <circle cx="540" cy="1318.624" r="522.288" fill="#3B82F6" opacity="0.18"/>
    <circle cx="540" cy="1318.624" r="374.97600000000006" fill="#3B82F6" opacity="0.20"/><text x="540" y="201.24" font-family="'Helvetica Neue', 'Segoe UI', Roboto, Arial, sans-serif" font-size="74" font-weight="800" fill="#0F172A" text-anchor="middle">Bloquez les appels</text><text x="540" y="285.6" font-family="'Helvetica Neue', 'Segoe UI', Roboto, Arial, sans-serif" font-size="74" font-weight="800" fill="#0F172A" text-anchor="middle">indésirables</text><text x="540" y="381.96000000000004" font-family="'Helvetica Neue', 'Segoe UI', Roboto, Arial, sans-serif" font-size="34" font-weight="500" fill="#3D5175" text-anchor="middle">Avant même que ça sonne</text>
  <g>
    <rect x="148.57" y="616.45" width="782.86" height="1631.7547951627907" rx="117.97528" fill="#0F172A" opacity="0.14"/>
    <rect x="151.57" y="619.45" width="776.86" height="1625.7547951627907" rx="114.97528" fill="#0B1220"/>
    <clipPath id="scr152x619"><rect x="176.42952" y="644.30952" width="727.1409600000001" height="1576.0357551627908" rx="90.11576"/></clipPath>
    <g clip-path="url(#scr152x619)">
      <svg x="176.42952" y="644.30952" width="727.1409600000001" height="1576.0357551627908" viewBox="0 0 430 932" preserveAspectRatio="xMidYMin slice"><rect width="430" height="932" fill="#101F3C"/>
    <text x="28" y="32" font-family="'Helvetica Neue', 'Segoe UI', Roboto, Arial, sans-serif" font-size="15" font-weight="600" fill="#FFFFFF" text-anchor="start">9:41</text>
    <g fill="#FFFFFF">
      <rect x="352" y="20" width="3" height="9" rx="1"/><rect x="357" y="17" width="3" height="12" rx="1"/>
      <rect x="362" y="14" width="3" height="15" rx="1"/><rect x="367" y="11" width="3" height="18" rx="1"/>
      <rect x="378" y="15" width="22" height="12" rx="3.5" fill="none" stroke="#FFFFFF" stroke-width="1.6"/>
      <rect x="380" y="17" width="15" height="8" rx="2"/>
      <rect x="401" y="18.5" width="2.4" height="5" rx="1.2"/>
    </g><g transform="translate(155,76) scale(0.8333333333333334)" stroke="#9DB8E8" fill="#9DB8E8"><path d="M7.5 4c.8 0 1.6 2 1.9 3.1.2.8-.6 1.5-1.3 2.1 1 2.3 2.4 3.7 4.7 4.7.6-.7 1.3-1.5 2.1-1.3C16 12.9 18 13.7 18 14.5c0 1.7-1.6 3-3.2 2.7C10 16.4 5.6 12 4.8 7.2 4.5 5.6 5.8 4 7.5 4z" fill="none" stroke-width="2" stroke-linejoin="round"/></g><text x="223" y="92" font-family="'Helvetica Neue', 'Segoe UI', Roboto, Arial, sans-serif" font-size="15" font-weight="600" fill="#9DB8E8" text-anchor="middle">Who Called</text><circle cx="215" cy="212" r="52" fill="#24457E"/><g transform="translate(189,186) scale(2.1666666666666665)" stroke="#7E9CD1" fill="#7E9CD1"><circle cx="12" cy="8.4" r="3.6" fill="none" stroke-width="2.2"/><path d="M5 20c.8-3.6 3.6-5.4 7-5.4s6.2 1.8 7 5.4" fill="none" stroke-width="2.2" stroke-linecap="round"/></g><text x="215" y="312" font-family="'Helvetica Neue', 'Segoe UI', Roboto, Arial, sans-serif" font-size="17" font-weight="500" fill="#B9CBEA" text-anchor="middle">Appel entrant…</text><text x="215" y="356" font-family="'Helvetica Neue', 'Segoe UI', Roboto, Arial, sans-serif" font-size="30" font-weight="700" fill="#FFFFFF" text-anchor="middle">+33 9 48 12 34 56</text><rect x="20" y="420" width="390" height="176" rx="22" fill="#EF4444"/><circle cx="72" cy="482" r="32" fill="#FFFFFF" fill-opacity="0.18"/><g transform="translate(56,466) scale(1.3333333333333333)" stroke="#FFFFFF" fill="#FFFFFF"><circle cx="12" cy="12" r="8.4" fill="none" stroke-width="2.4"/><path d="M6.4 6.4l11.2 11.2" stroke-width="2.4" stroke-linecap="round"/></g><text x="122" y="476" font-family="'Helvetica Neue', 'Segoe UI', Roboto, Arial, sans-serif" font-size="22" font-weight="800" fill="#FFFFFF" text-anchor="start">Démarchage présumé</text><text x="122" y="504" font-family="'Helvetica Neue', 'Segoe UI', Roboto, Arial, sans-serif" font-size="13.5" font-weight="400" fill="#FFFFFF" text-anchor="start" fill-opacity="0.92">256 signalements · communauté + ARCEP</text><line x1="42" y1="530" x2="388" y2="530" stroke="#FFFFFF" stroke-opacity="0.28"/><g transform="translate(42,548) scale(0.8333333333333334)" stroke="#FFFFFF" fill="#FFFFFF"><circle cx="12" cy="12" r="8.4" fill="none" stroke-width="2.4"/><path d="M6.4 6.4l11.2 11.2" stroke-width="2.4" stroke-linecap="round"/></g><text x="72" y="563" font-family="'Helvetica Neue', 'Segoe UI', Roboto, Arial, sans-serif" font-size="14.5" font-weight="700" fill="#FFFFFF" text-anchor="start">Bloqué avant de sonner</text><g transform="translate(346,542) scale(0.7083333333333334)">
    <path d="M24 3l17 6.4v13c0 11.6-7.4 19-17 23.2C14.4 41.4 7 34 7 22.4v-13z" fill="#FFFFFF"/>
    <path d="M24 7.6l12.8 4.8v10c0 8.8-5.6 14.5-12.8 17.8-7.2-3.3-12.8-9-12.8-17.8v-10z" fill="#EF4444"/>
    <path d="M21.4 29.4l-5.4-5.4 2.7-2.7 2.7 2.7 9.6-9.6 2.7 2.7z" fill="#FFFFFF"/>
  </g><circle cx="125" cy="782" r="40" fill="#EF4444"/><g transform="translate(125,782) rotate(135)"><g transform="translate(-13,-13) scale(1.0833333333333333)" stroke="#FFFFFF" fill="#FFFFFF"><path d="M7.5 4c.8 0 1.6 2 1.9 3.1.2.8-.6 1.5-1.3 2.1 1 2.3 2.4 3.7 4.7 4.7.6-.7 1.3-1.5 2.1-1.3C16 12.9 18 13.7 18 14.5c0 1.7-1.6 3-3.2 2.7C10 16.4 5.6 12 4.8 7.2 4.5 5.6 5.8 4 7.5 4z" fill="none" stroke-width="2" stroke-linejoin="round"/></g></g><circle cx="305" cy="782" r="40" fill="#10B981"/><g transform="translate(292,769) scale(1.0833333333333333)" stroke="#FFFFFF" fill="#FFFFFF"><path d="M7.5 4c.8 0 1.6 2 1.9 3.1.2.8-.6 1.5-1.3 2.1 1 2.3 2.4 3.7 4.7 4.7.6-.7 1.3-1.5 2.1-1.3C16 12.9 18 13.7 18 14.5c0 1.7-1.6 3-3.2 2.7C10 16.4 5.6 12 4.8 7.2 4.5 5.6 5.8 4 7.5 4z" fill="none" stroke-width="2" stroke-linejoin="round"/></g></svg>
    </g>
    <circle cx="540" cy="677.0308632" r="12.361396320000003" fill="#0B1220"/>
  </g></svg>