<svg xmlns="http://www.w3.org/2000/svg" width="1080" height="2347" viewBox="0 0 1080 2347"><rect width="1080" height="2347" fill="#17233E"/><rect x="96" y="168.7" width="268" height="60" rx="30" fill="#F59E0B"/><text x="124" y="209.7" font-family="'Helvetica Neue', 'Segoe UI', Roboto, Arial, sans-serif" font-size="28" font-weight="800" fill="#231A02" text-anchor="start" letter-spacing="1.5">PROTECTION</text><text x="90" y="302.7" font-family="'Helvetica Neue', 'Segoe UI', Roboto, Arial, sans-serif" font-size="96" font-weight="800" fill="#FFFFFF" text-anchor="start">Pour éviter</text><text x="90" y="408.3" font-family="'Helvetica Neue', 'Segoe UI', Roboto, Arial, sans-serif" font-size="96" font-weight="800" fill="#FFFFFF" text-anchor="start">les appels.</text>
    <circle cx="540" cy="1182.3425" r="594" fill="#3B82F6" opacity="0.16"/>
    <circle cx="540" cy="1182.3425" r="463.32" fill="#3B82F6" opacity="0.18"/>
    <circle cx="540" cy="1182.3425" r="332.64000000000004" fill="#3B82F6" opacity="0.20"/>
  <g>
    <rect x="184.97500000000002" y="580.9" width="710.05" height="1479.383445581395" rx="107.19939999999998" fill="#0F172A" opacity="0.14"/>
    <rect x="187.97500000000002" y="583.9" width="704.05" height="1473.383445581395" rx="104.19939999999998" fill="#0B1220"/>
    <clipPath id="scr188x584"><rect x="210.5046" y="606.4295999999999" width="658.9907999999999" height="1428.3242455813952" rx="81.66979999999998"/></clipPath>
    <g clip-path="url(#scr188x584)">
      <svg x="210.5046" y="606.4295999999999" width="658.9907999999999" height="1428.3242455813952" viewBox="0 0 430 932" preserveAspectRatio="xMidYMin slice"><rect width="430" height="932" fill="#F7F9FE"/>
    <rect x="0" y="0" width="430" height="128" fill="#FFFFFF"/>
    <line x1="0" y1="128" x2="430" y2="128" stroke="#E2E8F5" stroke-width="1.4"/>
    
    <text x="28" y="32" font-family="'Helvetica Neue', 'Segoe UI', Roboto, Arial, sans-serif" font-size="15" font-weight="600" fill="#0F172A" text-anchor="start">9:41</text>
    <g fill="#0F172A">
      <rect x="352" y="20" width="3" height="9" rx="1"/><rect x="357" y="17" width="3" height="12" rx="1"/>
      <rect x="362" y="14" width="3" height="15" rx="1"/><rect x="367" y="11" width="3" height="18" rx="1"/>
      <rect x="378" y="15" width="22" height="12" rx="3.5" fill="none" stroke="#0F172A" stroke-width="1.6"/>
      <rect x="380" y="17" width="15" height="8" rx="2"/>
      <rect x="401" y="18.5" width="2.4" height="5" rx="1.2"/>
    </g>
    <text x="28" y="86" font-family="'Helvetica Neue', 'Segoe UI', Roboto, Arial, sans-serif" font-size="26" font-weight="800" fill="#0F172A" text-anchor="start">Who Called</text>
    <circle cx="33" cy="106" r="4" fill="#10B981"/>
    <text x="46" y="111" font-family="'Helvetica Neue', 'Segoe UI', Roboto, Arial, sans-serif" font-size="13.5" font-weight="600" fill="#64748B" text-anchor="start">Vous êtes protégé</text>
    <circle cx="385" cy="86" r="23" fill="#EFF5FF"/>
    <g transform="translate(371,72) scale(1.1666666666666667)" stroke="#2563EB" fill="#2563EB"><path d="M12 3.4l7 2.8v5.4c0 4.8-3 7.9-7 9.6-4-1.7-7-4.8-7-9.6V6.2z" fill="none" stroke-width="2.2" stroke-linejoin="round"/></g><rect x="24" y="148" width="382" height="46" rx="23" fill="#FFFFFF" stroke="#2563EB" stroke-width="1.6"/><g transform="translate(118,160) scale(0.9166666666666666)" stroke="#2563EB" fill="#2563EB"><path d="M19 12a7 7 0 1 1-2-4.9M17 4v3.4h-3.4" fill="none" stroke-width="2.3" stroke-linecap="round" stroke-linejoin="round"/></g><text x="229" y="178" font-family="'Helvetica Neue', 'Segoe UI', Roboto, Arial, sans-serif" font-size="15.5" font-weight="600" fill="#2563EB" text-anchor="middle">Mettre à jour la liste</text><rect x="24" y="214" width="382" height="268" rx="16" fill="#E9F8F2" stroke="#A9E4CE" stroke-width="1.4"/><g transform="translate(44,236) scale(1.0833333333333333)" stroke="#10B981" fill="#10B981"><path d="M5 12.5l4.5 4.5L19 7.5" fill="none" stroke-width="2.6" stroke-linecap="round" stroke-linejoin="round"/></g><circle cx="57" cy="249" r="17" fill="none" stroke="#10B981" stroke-width="2.4"/><text x="86" y="255" font-family="'Helvetica Neue', 'Segoe UI', Roboto, Arial, sans-serif" font-size="17.5" font-weight="800" fill="#0F172A" text-anchor="start">Bloqueur actif et à jour</text><line x1="44" y1="278" x2="386" y2="278" stroke="#A9E4CE" stroke-width="1.2"/><g transform="translate(44,294) scale(0.9166666666666666)" stroke="#10B981" fill="#10B981"><ellipse cx="12" cy="6" rx="7" ry="2.8" fill="none" stroke-width="2"/><path d="M5 6v12c0 1.6 3.1 2.8 7 2.8s7-1.2 7-2.8V6M5 12c0 1.6 3.1 2.8 7 2.8s7-1.2 7-2.8" fill="none" stroke-width="2"/></g><text x="76" y="306" font-family="'Helvetica Neue', 'Segoe UI', Roboto, Arial, sans-serif" font-size="15" font-weight="500" fill="#0F172A" text-anchor="start">Numéros couverts</text><text x="76" y="326" font-family="'Helvetica Neue', 'Segoe UI', Roboto, Arial, sans-serif" font-size="12.5" font-weight="400" fill="#64748B" text-anchor="start">Mise à jour auto · à jour aujourd’hui</text><text x="386" y="310" font-family="'Helvetica Neue', 'Segoe UI', Roboto, Arial, sans-serif" font-size="16" font-weight="800" fill="#0F172A" text-anchor="end">16 643 100</text><text x="76" y="350" font-family="'Helvetica Neue', 'Segoe UI', Roboto, Arial, sans-serif" font-size="12.5" font-weight="400" fill="#64748B" text-anchor="start">France : 15 214 900 numéros · 41 préfixes ARCEP</text><g transform="translate(44,372) scale(0.9166666666666666)" stroke="#EF4444" fill="#EF4444"><circle cx="12" cy="12" r="8.4" fill="none" stroke-width="2.4"/><path d="M6.4 6.4l11.2 11.2" stroke-width="2.4" stroke-linecap="round"/></g><text x="76" y="384" font-family="'Helvetica Neue', 'Segoe UI', Roboto, Arial, sans-serif" font-size="15" font-weight="600" fill="#0F172A" text-anchor="start">Appels bloqués</text><text x="76" y="404" font-family="'Helvetica Neue', 'Segoe UI', Roboto, Arial, sans-serif" font-size="12.5" font-weight="400" fill="#64748B" text-anchor="start">Rejetés sans sonner · voir le détail</text><text x="364" y="392" font-family="'Helvetica Neue', 'Segoe UI', Roboto, Arial, sans-serif" font-size="22" font-weight="800" fill="#EF4444" text-anchor="end">27</text><g transform="translate(368,376) scale(0.8333333333333334)" stroke="#64748B" fill="#64748B"><path d="M9 6l6 6-6 6" fill="none" stroke-width="2.4" stroke-linecap="round" stroke-linejoin="round"/></g><g transform="translate(44,426) scale(0.9166666666666666)" stroke="#F59E0B" fill="#F59E0B"><path d="M12 4L21 20H3z" fill="none" stroke-width="2.2" stroke-linejoin="round"/><path d="M12 10.5v4" stroke-width="2.2" stroke-linecap="round"/><circle cx="12" cy="17" r="1.2" stroke="none"/></g><text x="76" y="438" font-family="'Helvetica Neue', 'Segoe UI', Roboto, Arial, sans-serif" font-size="15" font-weight="600" fill="#0F172A" text-anchor="start">Appels suspects</text><text x="76" y="458" font-family="'Helvetica Neue', 'Segoe UI', Roboto, Arial, sans-serif" font-size="12.5" font-weight="400" fill="#64748B" text-anchor="start">Ont sonné, vous avez été prévenu</text><text x="364" y="446" font-family="'Helvetica Neue', 'Segoe UI', Roboto, Arial, sans-serif" font-size="22" font-weight="800" fill="#F59E0B" text-anchor="end">4</text><g transform="translate(368,430) scale(0.8333333333333334)" stroke="#64748B" fill="#64748B"><path d="M9 6l6 6-6 6" fill="none" stroke-width="2.4" stroke-linecap="round" stroke-linejoin="round"/></g><rect x="24" y="498" width="382" height="92" rx="16" fill="#FFFFFF" stroke="#E2E8F5" stroke-width="1.4"/><rect x="24" y="510" width="4" height="68" rx="2" fill="#2563EB"/><g transform="translate(44,516) scale(1.0833333333333333)" stroke="#2563EB" fill="#2563EB"><path d="M12 3.4l7 2.8v5.4c0 4.8-3 7.9-7 9.6-4-1.7-7-4.8-7-9.6V6.2z" fill="none" stroke-width="2.2" stroke-linejoin="round"/></g><text x="82" y="530" font-family="'Helvetica Neue', 'Segoe UI', Roboto, Arial, sans-serif" font-size="15" font-weight="700" fill="#0F172A" text-anchor="start">Bouclier communautaire</text><text x="82" y="552" font-family="'Helvetica Neue', 'Segoe UI', Roboto, Arial, sans-serif" font-size="12" font-weight="400" fill="#64748B" text-anchor="start">412 380 signalements ensemble · +8 214 cette semaine</text><rect x="44" y="566" width="342" height="6" rx="3" fill="#EFF5FF"/><rect x="44" y="566" width="225.72" height="6" rx="3" fill="#2563EB"/><rect x="24" y="606" width="382" height="76" rx="16" fill="#FFFFFF" stroke="#E2E8F5" stroke-width="1.4"/><rect x="24" y="618" width="4" height="52" rx="2" fill="#10B981"/><g transform="translate(44,630) scale(1.1666666666666667)" stroke="#10B981" fill="#10B981"><path d="M4 5h16v11H9l-5 4z" fill="none" stroke-width="2.2" stroke-linejoin="round"/><path d="M8 9h8M8 12.4h5" stroke-width="2" stroke-linecap="round"/></g><text x="84" y="640" font-family="'Helvetica Neue', 'Segoe UI', Roboto, Arial, sans-serif" font-size="15" font-weight="700" fill="#0F172A" text-anchor="start">Bouclier SMS</text><text x="84" y="661" font-family="'Helvetica Neue', 'Segoe UI', Roboto, Arial, sans-serif" font-size="12.5" font-weight="400" fill="#10B981" text-anchor="start">Actif · les SMS indésirables sont masqués</text><g transform="translate(368,632) scale(0.9166666666666666)" stroke="#64748B" fill="#64748B"><path d="M9 6l6 6-6 6" fill="none" stroke-width="2.4" stroke-linecap="round" stroke-linejoin="round"/></g><rect x="0" y="848" width="430" height="84" fill="#FFFFFF"/>
    <line x1="0" y1="848" x2="430" y2="848" stroke="#E2E8F5" stroke-width="1.4"/><rect x="19.75" y="858" width="68" height="32" rx="16" fill="#EFF5FF"/><g transform="translate(41.75,862) scale(1)" stroke="#2563EB" fill="#2563EB"><path d="M4 11l8-7 8 7M6.5 9.8V20h11V9.8" fill="none" stroke-width="2.2" stroke-linecap="round" stroke-linejoin="round"/></g><text x="53.75" y="906" font-family="'Helvetica Neue', 'Segoe UI', Roboto, Arial, sans-serif" font-size="12" font-weight="700" fill="#2563EB" text-anchor="middle">Accueil</text><g transform="translate(149.25,862) scale(1)" stroke="#64748B" fill="#64748B"><path d="M6 21V4m0 1h11l-2.5 4L17 13H6" fill="none" stroke-width="2.2" stroke-linecap="round" stroke-linejoin="round"/></g><text x="161.25" y="906" font-family="'Helvetica Neue', 'Segoe UI', Roboto, Arial, sans-serif" font-size="12" font-weight="500" fill="#64748B" text-anchor="middle">Signaler</text><g transform="translate(256.75,862) scale(1)" stroke="#64748B" fill="#64748B"><path d="M8 6h12M8 12h12M8 18h12" stroke-width="2.2" stroke-linecap="round"/><circle cx="4.4" cy="6" r="1.3" stroke="none"/><circle cx="4.4" cy="12" r="1.3" stroke="none"/><circle cx="4.4" cy="18" r="1.3" stroke="none"/></g><text x="268.75" y="906" font-family="'Helvetica Neue', 'Segoe UI', Roboto, Arial, sans-serif" font-size="12" font-weight="500" fill="#64748B" text-anchor="middle">Journal</text><g transform="translate(364.25,862) scale(1)" stroke="#64748B" fill="#64748B"><circle cx="12" cy="12" r="3" fill="none" stroke-width="2.1"/><path d="M12 3.6v2.2M12 18.2v2.2M3.6 12h2.2M18.2 12h2.2M6.1 6.1l1.5 1.5M16.4 16.4l1.5 1.5M6.1 17.9l1.5-1.5M16.4 7.6l1.5-1.5" stroke-width="2.1" stroke-linecap="round"/></g><text x="376.25" y="906" font-family="'Helvetica Neue', 'Segoe UI', Roboto, Arial, sans-serif" font-size="12" font-weight="500" fill="#64748B" text-anchor="middle">Réglages</text></svg>
    </g>
    <circle cx="540" cy="636.0841859999999" r="11.2028436" fill="#0B1220"/>
  </g><rect x="0" y="2053.38" width="1080" height="293.62" fill="#0C1526"/><rect x="96" y="2123.38" width="26" height="10" rx="5" fill="#F59E0B"/><text x="146" y="2149.38" font-family="'Helvetica Neue', 'Segoe UI', Roboto, Arial, sans-serif" font-size="38" font-weight="800" fill="#FFFFFF" text-anchor="start">Démarchage, arnaques, spam</text><rect x="96" y="2197.38" width="26" height="10" rx="5" fill="#F59E0B"/><text x="146" y="2223.38" font-family="'Helvetica Neue', 'Segoe UI', Roboto, Arial, sans-serif" font-size="38" font-weight="600" fill="#FFFFFF" text-anchor="start">Bloqués avant de sonner</text></svg>